<svg width="9" height="22" viewBox="0 0 9 22" fill="none" xmlns="http://www.w3.org/2000/svg">
<path d="M5.67234 0.429999V2.83H0.902344V5.23H5.67234V22H8.10234V0.429999H5.67234Z" fill="#001CF5"/>
<path d="M5.67234 0.429999V-0.0700012H5.17234V0.429999H5.67234ZM5.67234 2.83V3.33H6.17234V2.83H5.67234ZM0.902344 2.83V2.33H0.402344V2.83H0.902344ZM0.902344 5.23H0.402344V5.73H0.902344V5.23ZM5.67234 5.23H6.17234V4.73H5.67234V5.23ZM5.67234 22H5.17234V22.5H5.67234V22ZM8.10234 22V22.5H8.60234V22H8.10234ZM8.10234 0.429999H8.60234V-0.0700012H8.10234V0.429999ZM5.17234 0.429999V2.83H6.17234V0.429999H5.17234ZM5.67234 2.33H0.902344V3.33H5.67234V2.33ZM0.402344 2.83V5.23H1.40234V2.83H0.402344ZM0.902344 5.73H5.67234V4.73H0.902344V5.73ZM5.17234 5.23V22H6.17234V5.23H5.17234ZM5.67234 22.5H8.10234V21.5H5.67234V22.5ZM8.60234 22V0.429999H7.60234V22H8.60234ZM8.10234 -0.0700012H5.67234V0.929999H8.10234V-0.0700012Z" fill="#001CF5"/>
</svg>
