<svg width="13" height="22" viewBox="0 0 13 22" fill="none" xmlns="http://www.w3.org/2000/svg">
<path d="M2.87 5.23V2.83H0.5V5.23H2.87ZM12.47 10.03V2.83H10.07V10.03H12.47ZM0.5 17.23V22H12.47V19.63H2.87V17.23H0.5ZM10.07 2.83V0.429999H2.87V2.83H10.07ZM5.27 17.23V14.8H2.87V17.23H5.27ZM7.67 14.8V12.43H5.27V14.8H7.67ZM10.07 12.43V10.03H7.7V12.43H10.07Z" fill="#26B50F"/>
<path d="M2.87 5.23V5.73H3.37V5.23H2.87ZM2.87 2.83H3.37V2.33H2.87V2.83ZM0.5 2.83V2.33H0V2.83H0.5ZM0.5 5.23H0V5.73H0.5V5.23ZM12.47 10.03V10.53H12.97V10.03H12.47ZM12.47 2.83H12.97V2.33H12.47V2.83ZM10.07 2.83V2.33H9.57V2.83H10.07ZM10.07 10.03H9.57V10.53H10.07V10.03ZM0.5 17.23V16.73H0V17.23H0.5ZM0.5 22H0V22.5H0.5V22ZM12.47 22V22.5H12.97V22H12.47ZM12.47 19.63H12.97V19.13H12.47V19.63ZM2.87 19.63H2.37V20.13H2.87V19.63ZM2.87 17.23H3.37V16.73H2.87V17.23ZM10.07 2.83V3.33H10.57V2.83H10.07ZM10.07 0.429999H10.57V-0.0700012H10.07V0.429999ZM2.87 0.429999V-0.0700012H2.37V0.429999H2.87ZM2.87 2.83H2.37V3.33H2.87V2.83ZM5.27 17.23V17.73H5.77V17.23H5.27ZM5.27 14.8H5.77V14.3H5.27V14.8ZM2.87 14.8V14.3H2.37V14.8H2.87ZM2.87 17.23H2.37V17.73H2.87V17.23ZM7.67 14.8V15.3H8.17V14.8H7.67ZM7.67 12.43H8.17V11.93H7.67V12.43ZM5.27 12.43V11.93H4.77V12.43H5.27ZM5.27 14.8H4.77V15.3H5.27V14.8ZM10.07 12.43V12.93H10.57V12.43H10.07ZM10.07 10.03H10.57V9.53H10.07V10.03ZM7.7 10.03V9.53H7.2V10.03H7.7ZM7.7 12.43H7.2V12.93H7.7V12.43ZM3.37 5.23V2.83H2.37V5.23H3.37ZM2.87 2.33H0.5V3.33H2.87V2.33ZM0 2.83V5.23H1V2.83H0ZM0.5 5.73H2.87V4.73H0.5V5.73ZM12.97 10.03V2.83H11.97V10.03H12.97ZM12.47 2.33H10.07V3.33H12.47V2.33ZM9.57 2.83V10.03H10.57V2.83H9.57ZM10.07 10.53H12.47V9.53H10.07V10.53ZM0 17.23V22H1V17.23H0ZM0.5 22.5H12.47V21.5H0.5V22.5ZM12.97 22V19.63H11.97V22H12.97ZM12.47 19.13H2.87V20.13H12.47V19.13ZM3.37 19.63V17.23H2.37V19.63H3.37ZM2.87 16.73H0.5V17.73H2.87V16.73ZM10.57 2.83V0.429999H9.57V2.83H10.57ZM10.07 -0.0700012H2.87V0.929999H10.07V-0.0700012ZM2.37 0.429999V2.83H3.37V0.429999H2.37ZM2.87 3.33H10.07V2.33H2.87V3.33ZM5.77 17.23V14.8H4.77V17.23H5.77ZM5.27 14.3H2.87V15.3H5.27V14.3ZM2.37 14.8V17.23H3.37V14.8H2.37ZM2.87 17.73H5.27V16.73H2.87V17.73ZM8.17 14.8V12.43H7.17V14.8H8.17ZM7.67 11.93H5.27V12.93H7.67V11.93ZM4.77 12.43V14.8H5.77V12.43H4.77ZM5.27 15.3H7.67V14.3H5.27V15.3ZM10.57 12.43V10.03H9.57V12.43H10.57ZM10.07 9.53H7.7V10.53H10.07V9.53ZM7.2 10.03V12.43H8.2V10.03H7.2ZM7.7 12.93H10.07V11.93H7.7V12.93Z" fill="#26B50F"/>
</svg>
