<svg width="13" height="22" viewBox="0 0 13 22" fill="none" xmlns="http://www.w3.org/2000/svg">
<path d="M5.27 12.43V7.6H2.87V12.43H5.27ZM10.07 14.8V0.429999H7.7V2.83H5.27V7.6H7.7V14.8H2.87V12.43H0.5V17.23H7.7V22H10.07V17.23H12.47V14.8H10.07Z" fill="#02007F"/>
<path d="M5.27 12.43V12.93H5.77V12.43H5.27ZM5.27 7.6H5.77V7.1H5.27V7.6ZM2.87 7.6V7.1H2.37V7.6H2.87ZM2.87 12.43H2.37V12.93H2.87V12.43ZM10.07 14.8H9.57V15.3H10.07V14.8ZM10.07 0.429999H10.57V-0.0700012H10.07V0.429999ZM7.7 0.429999V-0.0700012H7.2V0.429999H7.7ZM7.7 2.83V3.33H8.2V2.83H7.7ZM5.27 2.83V2.33H4.77V2.83H5.27ZM5.27 7.6H4.77V8.1H5.27V7.6ZM7.7 7.6H8.2V7.1H7.7V7.6ZM7.7 14.8V15.3H8.2V14.8H7.7ZM2.87 14.8H2.37V15.3H2.87V14.8ZM2.87 12.43H3.37V11.93H2.87V12.43ZM0.5 12.43V11.93H0V12.43H0.5ZM0.5 17.23H0V17.73H0.5V17.23ZM7.7 17.23H8.2V16.73H7.7V17.23ZM7.7 22H7.2V22.5H7.7V22ZM10.07 22V22.5H10.57V22H10.07ZM10.07 17.23V16.73H9.57V17.23H10.07ZM12.47 17.23V17.73H12.97V17.23H12.47ZM12.47 14.8H12.97V14.3H12.47V14.8ZM5.77 12.43V7.6H4.77V12.43H5.77ZM5.27 7.1H2.87V8.1H5.27V7.1ZM2.37 7.6V12.43H3.37V7.6H2.37ZM2.87 12.93H5.27V11.93H2.87V12.93ZM10.57 14.8V0.429999H9.57V14.8H10.57ZM10.07 -0.0700012H7.7V0.929999H10.07V-0.0700012ZM7.2 0.429999V2.83H8.2V0.429999H7.2ZM7.7 2.33H5.27V3.33H7.7V2.33ZM4.77 2.83V7.6H5.77V2.83H4.77ZM5.27 8.1H7.7V7.1H5.27V8.1ZM7.2 7.6V14.8H8.2V7.6H7.2ZM7.7 14.3H2.87V15.3H7.7V14.3ZM3.37 14.8V12.43H2.37V14.8H3.37ZM2.87 11.93H0.5V12.93H2.87V11.93ZM0 12.43V17.23H1V12.43H0ZM0.5 17.73H7.7V16.73H0.5V17.73ZM7.2 17.23V22H8.2V17.23H7.2ZM7.7 22.5H10.07V21.5H7.7V22.5ZM10.57 22V17.23H9.57V22H10.57ZM10.07 17.73H12.47V16.73H10.07V17.73ZM12.97 17.23V14.8H11.97V17.23H12.97ZM12.47 14.3H10.07V15.3H12.47V14.3Z" fill="#02007F"/>
</svg>
