<svg width="13" height="22" viewBox="0 0 13 22" fill="none" xmlns="http://www.w3.org/2000/svg">
<path d="M7.67 14.8V10.03H5.27V14.8H7.67ZM5.27 22V14.8H2.87V22H5.27ZM10.07 10.03V5.23H7.67V10.03H10.07ZM0.5 0.429999V2.83H10.07V5.23H12.47V0.429999H0.5Z" fill="black"/>
<path d="M7.67 14.8V15.3H8.17V14.8H7.67ZM7.67 10.03H8.17V9.53H7.67V10.03ZM5.27 10.03V9.53H4.77V10.03H5.27ZM5.27 14.8H4.77V15.3H5.27V14.8ZM5.27 22V22.5H5.77V22H5.27ZM5.27 14.8H5.77V14.3H5.27V14.8ZM2.87 14.8V14.3H2.37V14.8H2.87ZM2.87 22H2.37V22.5H2.87V22ZM10.07 10.03V10.53H10.57V10.03H10.07ZM10.07 5.23H10.57V4.73H10.07V5.23ZM7.67 5.23V4.73H7.17V5.23H7.67ZM7.67 10.03H7.17V10.53H7.67V10.03ZM0.5 0.429999V-0.0700012H0V0.429999H0.5ZM0.5 2.83H0V3.33H0.5V2.83ZM10.07 2.83H10.57V2.33H10.07V2.83ZM10.07 5.23H9.57V5.73H10.07V5.23ZM12.47 5.23V5.73H12.97V5.23H12.47ZM12.47 0.429999H12.97V-0.0700012H12.47V0.429999ZM8.17 14.8V10.03H7.17V14.8H8.17ZM7.67 9.53H5.27V10.53H7.67V9.53ZM4.77 10.03V14.8H5.77V10.03H4.77ZM5.27 15.3H7.67V14.3H5.27V15.3ZM5.77 22V14.8H4.77V22H5.77ZM5.27 14.3H2.87V15.3H5.27V14.3ZM2.37 14.8V22H3.37V14.8H2.37ZM2.87 22.5H5.27V21.5H2.87V22.5ZM10.57 10.03V5.23H9.57V10.03H10.57ZM10.07 4.73H7.67V5.73H10.07V4.73ZM7.17 5.23V10.03H8.17V5.23H7.17ZM7.67 10.53H10.07V9.53H7.67V10.53ZM0 0.429999V2.83H1V0.429999H0ZM0.5 3.33H10.07V2.33H0.5V3.33ZM9.57 2.83V5.23H10.57V2.83H9.57ZM10.07 5.73H12.47V4.73H10.07V5.73ZM12.97 5.23V0.429999H11.97V5.23H12.97ZM12.47 -0.0700012H0.5V0.929999H12.47V-0.0700012Z" fill="black"/>
</svg>
