<svg width="38" height="38" viewBox="0 0 38 38" fill="none" xmlns="http://www.w3.org/2000/svg">
<g filter="url(#filter0_iii_66_3523)">
<rect width="38" height="38" fill="#C3C3C3"/>
</g>
<rect x="8" y="28" width="22" height="3" fill="black"/>
<rect x="11" y="25" width="16" height="3" fill="black"/>
<rect x="18" y="26" width="8" height="2" transform="rotate(-90 18 26)" fill="black"/>
<rect x="18" y="18" width="11" height="2" transform="rotate(-90 18 18)" fill="#EB3323"/>
<rect x="16" y="17" width="9" height="2" transform="rotate(-90 16 17)" fill="#EB3323"/>
<rect x="14" y="16" width="7" height="2" transform="rotate(-90 14 16)" fill="#EB3323"/>
<rect x="12" y="15" width="5" height="2" transform="rotate(-90 12 15)" fill="#EB3323"/>
<rect x="10" y="14" width="3" height="2" transform="rotate(-90 10 14)" fill="#EB3323"/>
<rect x="9" y="13" width="1" height="1" transform="rotate(-90 9 13)" fill="#EB3323"/>
<defs>
<filter id="filter0_iii_66_3523" x="0" y="0" width="38" height="38" filterUnits="userSpaceOnUse" color-interpolation-filters="sRGB">
<feFlood flood-opacity="0" result="BackgroundImageFix"/>
<feBlend mode="normal" in="SourceGraphic" in2="BackgroundImageFix" result="shape"/>
<feColorMatrix in="SourceAlpha" type="matrix" values="0 0 0 0 0 0 0 0 0 0 0 0 0 0 0 0 0 0 127 0" result="hardAlpha"/>
<feOffset dx="-4" dy="-4"/>
<feComposite in2="hardAlpha" operator="arithmetic" k2="-1" k3="1"/>
<feColorMatrix type="matrix" values="0 0 0 0 0.495833 0 0 0 0 0.495833 0 0 0 0 0.495833 0 0 0 1 0"/>
<feBlend mode="normal" in2="shape" result="effect1_innerShadow_66_3523"/>
<feColorMatrix in="SourceAlpha" type="matrix" values="0 0 0 0 0 0 0 0 0 0 0 0 0 0 0 0 0 0 127 0" result="hardAlpha"/>
<feOffset dx="2" dy="2"/>
<feComposite in2="hardAlpha" operator="arithmetic" k2="-1" k3="1"/>
<feColorMatrix type="matrix" values="0 0 0 0 0.941667 0 0 0 0 0.941667 0 0 0 0 0.941667 0 0 0 1 0"/>
<feBlend mode="normal" in2="effect1_innerShadow_66_3523" result="effect2_innerShadow_66_3523"/>
<feColorMatrix in="SourceAlpha" type="matrix" values="0 0 0 0 0 0 0 0 0 0 0 0 0 0 0 0 0 0 127 0" result="hardAlpha"/>
<feOffset dx="-2" dy="-2"/>
<feComposite in2="hardAlpha" operator="arithmetic" k2="-1" k3="1"/>
<feColorMatrix type="matrix" values="0 0 0 0 0.15 0 0 0 0 0.15 0 0 0 0 0.15 0 0 0 1 0"/>
<feBlend mode="normal" in2="effect2_innerShadow_66_3523" result="effect3_innerShadow_66_3523"/>
</filter>
</defs>
</svg>
