<svg width="38" height="38" viewBox="0 0 38 38" fill="none" xmlns="http://www.w3.org/2000/svg">
<rect width="38" height="38" fill="#EB3323"/>
<rect x="11" y="11" width="16" height="16" fill="black"/>
<rect x="17.6667" y="5.66663" width="2.66667" height="5.33333" fill="black"/>
<rect x="8.33333" y="8.33337" width="2.66667" height="2.66667" fill="black"/>
<rect x="15" y="8.33337" width="2.66667" height="2.66667" fill="#9C2054"/>
<rect x="20.3333" y="8.33337" width="2.66667" height="2.66667" fill="#9C2054"/>
<rect x="17.6667" y="3" width="2.66667" height="2.66667" fill="#9C2054"/>
<rect x="29.6667" y="15" width="2.66667" height="2.66667" transform="rotate(90 29.6667 15)" fill="#9C2054"/>
<rect x="29.6667" y="20.3334" width="2.66667" height="2.66667" transform="rotate(90 29.6667 20.3334)" fill="#9C2054"/>
<rect x="35" y="17.6666" width="2.66667" height="2.66667" transform="rotate(90 35 17.6666)" fill="#9C2054"/>
<rect x="23" y="29.6666" width="2.66667" height="2.66667" transform="rotate(-180 23 29.6666)" fill="#9C2054"/>
<rect x="17.6667" y="29.6666" width="2.66667" height="2.66667" transform="rotate(-180 17.6667 29.6666)" fill="#9C2054"/>
<rect x="20.3333" y="35" width="2.66667" height="2.66667" transform="rotate(-180 20.3333 35)" fill="#9C2054"/>
<rect x="8.33333" y="23" width="2.66667" height="2.66667" transform="rotate(-90 8.33333 23)" fill="#9C2054"/>
<rect x="8.33333" y="17.6666" width="2.66667" height="2.66667" transform="rotate(-90 8.33333 17.6666)" fill="#9C2054"/>
<rect x="3" y="20.3334" width="2.66667" height="2.66667" transform="rotate(-90 3 20.3334)" fill="#9C2054"/>
<rect x="8.33333" y="27" width="2.66667" height="2.66667" fill="black"/>
<rect x="27" y="8.33337" width="2.66667" height="2.66667" fill="black"/>
<rect x="27" y="27" width="2.66667" height="2.66667" fill="black"/>
<rect x="32.3333" y="17.6666" width="2.66667" height="5.33333" transform="rotate(90 32.3333 17.6666)" fill="black"/>
<rect x="17.6667" y="27" width="2.66667" height="5.33333" fill="black"/>
<rect x="11" y="17.6666" width="2.66667" height="5.33333" transform="rotate(90 11 17.6666)" fill="black"/>
<rect x="13.6667" y="13.6666" width="2.66667" height="2.66667" fill="white"/>
</svg>
