<svg width="13" height="23" viewBox="0 0 13 23" fill="none" xmlns="http://www.w3.org/2000/svg">
<path d="M10.07 22.03V19.63H2.87V22.03H10.07ZM12.47 19.63V10.03H10.07V19.63H12.47ZM2.87 19.63V17.23H0.5V19.63H2.87ZM12.47 2.83V0.429999H0.5V12.43H2.87V10.03H10.07V7.6H2.87V2.83H12.47Z" fill="#9C2054"/>
<path d="M10.07 22.03V22.53H10.57V22.03H10.07ZM10.07 19.63H10.57V19.13H10.07V19.63ZM2.87 19.63V19.13H2.37V19.63H2.87ZM2.87 22.03H2.37V22.53H2.87V22.03ZM12.47 19.63V20.13H12.97V19.63H12.47ZM12.47 10.03H12.97V9.53H12.47V10.03ZM10.07 10.03V9.53H9.57V10.03H10.07ZM10.07 19.63H9.57V20.13H10.07V19.63ZM2.87 19.63V20.13H3.37V19.63H2.87ZM2.87 17.23H3.37V16.73H2.87V17.23ZM0.5 17.23V16.73H0V17.23H0.5ZM0.5 19.63H0V20.13H0.5V19.63ZM12.47 2.83V3.33H12.97V2.83H12.47ZM12.47 0.429999H12.97V-0.0700012H12.47V0.429999ZM0.5 0.429999V-0.0700012H0V0.429999H0.5ZM0.5 12.43H0V12.93H0.5V12.43ZM2.87 12.43V12.93H3.37V12.43H2.87ZM2.87 10.03V9.53H2.37V10.03H2.87ZM10.07 10.03V10.53H10.57V10.03H10.07ZM10.07 7.6H10.57V7.1H10.07V7.6ZM2.87 7.6H2.37V8.1H2.87V7.6ZM2.87 2.83V2.33H2.37V2.83H2.87ZM10.57 22.03V19.63H9.57V22.03H10.57ZM10.07 19.13H2.87V20.13H10.07V19.13ZM2.37 19.63V22.03H3.37V19.63H2.37ZM2.87 22.53H10.07V21.53H2.87V22.53ZM12.97 19.63V10.03H11.97V19.63H12.97ZM12.47 9.53H10.07V10.53H12.47V9.53ZM9.57 10.03V19.63H10.57V10.03H9.57ZM10.07 20.13H12.47V19.13H10.07V20.13ZM3.37 19.63V17.23H2.37V19.63H3.37ZM2.87 16.73H0.5V17.73H2.87V16.73ZM0 17.23V19.63H1V17.23H0ZM0.5 20.13H2.87V19.13H0.5V20.13ZM12.97 2.83V0.429999H11.97V2.83H12.97ZM12.47 -0.0700012H0.5V0.929999H12.47V-0.0700012ZM0 0.429999V12.43H1V0.429999H0ZM0.5 12.93H2.87V11.93H0.5V12.93ZM3.37 12.43V10.03H2.37V12.43H3.37ZM2.87 10.53H10.07V9.53H2.87V10.53ZM10.57 10.03V7.6H9.57V10.03H10.57ZM10.07 7.1H2.87V8.1H10.07V7.1ZM3.37 7.6V2.83H2.37V7.6H3.37ZM2.87 3.33H12.47V2.33H2.87V3.33Z" fill="#9C2054"/>
</svg>
