<svg width="13" height="23" viewBox="0 0 13 23" fill="none" xmlns="http://www.w3.org/2000/svg">
<path d="M10.07 22.03V19.63H2.87V22.03H10.07ZM12.47 19.63V12.43H10.07V19.63H12.47ZM0.5 19.63H2.87V12.43H10.07V10.03H2.87V2.83H0.5V19.63ZM10.07 2.83V0.429999H2.87V2.83H10.07ZM12.47 5.23V2.83H10.07V5.23H12.47Z" fill="#008282"/>
<path d="M10.07 22.03V22.53H10.57V22.03H10.07ZM10.07 19.63H10.57V19.13H10.07V19.63ZM2.87 19.63V19.13H2.37V19.63H2.87ZM2.87 22.03H2.37V22.53H2.87V22.03ZM12.47 19.63V20.13H12.97V19.63H12.47ZM12.47 12.43H12.97V11.93H12.47V12.43ZM10.07 12.43V11.93H9.57V12.43H10.07ZM10.07 19.63H9.57V20.13H10.07V19.63ZM0.5 19.63H0V20.13H0.5V19.63ZM2.87 19.63V20.13H3.37V19.63H2.87ZM2.87 12.43V11.93H2.37V12.43H2.87ZM10.07 12.43V12.93H10.57V12.43H10.07ZM10.07 10.03H10.57V9.53H10.07V10.03ZM2.87 10.03H2.37V10.53H2.87V10.03ZM2.87 2.83H3.37V2.33H2.87V2.83ZM0.5 2.83V2.33H0V2.83H0.5ZM10.07 2.83V3.33H10.57V2.83H10.07ZM10.07 0.429999H10.57V-0.0700012H10.07V0.429999ZM2.87 0.429999V-0.0700012H2.37V0.429999H2.87ZM2.87 2.83H2.37V3.33H2.87V2.83ZM12.47 5.23V5.73H12.97V5.23H12.47ZM12.47 2.83H12.97V2.33H12.47V2.83ZM10.07 2.83V2.33H9.57V2.83H10.07ZM10.07 5.23H9.57V5.73H10.07V5.23ZM10.57 22.03V19.63H9.57V22.03H10.57ZM10.07 19.13H2.87V20.13H10.07V19.13ZM2.37 19.63V22.03H3.37V19.63H2.37ZM2.87 22.53H10.07V21.53H2.87V22.53ZM12.97 19.63V12.43H11.97V19.63H12.97ZM12.47 11.93H10.07V12.93H12.47V11.93ZM9.57 12.43V19.63H10.57V12.43H9.57ZM10.07 20.13H12.47V19.13H10.07V20.13ZM0.5 20.13H2.87V19.13H0.5V20.13ZM3.37 19.63V12.43H2.37V19.63H3.37ZM2.87 12.93H10.07V11.93H2.87V12.93ZM10.57 12.43V10.03H9.57V12.43H10.57ZM10.07 9.53H2.87V10.53H10.07V9.53ZM3.37 10.03V2.83H2.37V10.03H3.37ZM2.87 2.33H0.5V3.33H2.87V2.33ZM0 2.83V19.63H1V2.83H0ZM10.57 2.83V0.429999H9.57V2.83H10.57ZM10.07 -0.0700012H2.87V0.929999H10.07V-0.0700012ZM2.37 0.429999V2.83H3.37V0.429999H2.37ZM2.87 3.33H10.07V2.33H2.87V3.33ZM12.97 5.23V2.83H11.97V5.23H12.97ZM12.47 2.33H10.07V3.33H12.47V2.33ZM9.57 2.83V5.23H10.57V2.83H9.57ZM10.07 5.73H12.47V4.73H10.07V5.73Z" fill="#008282"/>
</svg>
