<?xml version="1.0" encoding="utf-8"?>
<!-- Generator: Adobe Illustrator 26.0.2, SVG Export Plug-In . SVG Version: 6.00 Build 0)  -->
<svg version="1.1" id="Layer_1" xmlns="http://www.w3.org/2000/svg" xmlns:xlink="http://www.w3.org/1999/xlink" x="0px" y="0px"
	 viewBox="0 0 32 32" style="enable-background:new 0 0 32 32;" xml:space="preserve">
<style type="text/css">
	.st0{fill:#A0A0A0;}
	.st1{fill:#FFFFFF;}
	.st2{fill:none;stroke:#EE2724;stroke-width:2;stroke-miterlimit:10;}
</style>
<rect x="8" y="8" width="16" height="16"/>
<rect x="14.7" y="2.7" width="2.7" height="5.3"/>
<rect x="5.3" y="5.3" width="2.7" height="2.7"/>
<rect x="12" y="5.3" class="st0" width="2.7" height="2.7"/>
<rect x="17.3" y="5.3" class="st0" width="2.7" height="2.7"/>
<rect x="14.7" class="st0" width="2.7" height="2.7"/>
<rect x="24" y="12" class="st0" width="2.7" height="2.7"/>
<rect x="24" y="17.3" class="st0" width="2.7" height="2.7"/>
<rect x="29.3" y="14.7" class="st0" width="2.7" height="2.7"/>
<rect x="17.3" y="24" class="st0" width="2.7" height="2.7"/>
<rect x="12" y="24" class="st0" width="2.7" height="2.7"/>
<rect x="14.7" y="29.3" class="st0" width="2.7" height="2.7"/>
<rect x="5.3" y="17.3" class="st0" width="2.7" height="2.7"/>
<rect x="5.3" y="12" class="st0" width="2.7" height="2.7"/>
<rect y="14.7" class="st0" width="2.7" height="2.7"/>
<rect x="5.3" y="24" width="2.7" height="2.7"/>
<rect x="24" y="5.3" width="2.7" height="2.7"/>
<rect x="24" y="24" width="2.7" height="2.7"/>
<rect x="24" y="14.7" width="5.3" height="2.7"/>
<rect x="14.7" y="24" width="2.7" height="5.3"/>
<rect x="2.7" y="14.7" width="5.3" height="2.7"/>
<rect x="10.7" y="10.7" class="st1" width="2.7" height="2.7"/>
<line class="st2" x1="30" y1="2" x2="2" y2="30"/>
<line class="st2" x1="1.4" y1="1.5" x2="29.5" y2="29.6"/>
</svg>
