<svg width="32" height="32" viewBox="0 0 32 32" fill="none" xmlns="http://www.w3.org/2000/svg">
<rect x="8" y="8" width="16" height="16" fill="black"/>
<rect x="14.6667" y="2.66663" width="2.66667" height="5.33333" fill="black"/>
<rect x="5.33334" y="5.33337" width="2.66667" height="2.66667" fill="black"/>
<rect x="12" y="5.33337" width="2.66667" height="2.66667" fill="#A0A0A0"/>
<rect x="17.3333" y="5.33337" width="2.66667" height="2.66667" fill="#A0A0A0"/>
<rect x="14.6667" width="2.66667" height="2.66667" fill="#A0A0A0"/>
<rect x="26.6667" y="12" width="2.66667" height="2.66667" transform="rotate(90 26.6667 12)" fill="#A0A0A0"/>
<rect x="26.6667" y="17.3334" width="2.66667" height="2.66667" transform="rotate(90 26.6667 17.3334)" fill="#A0A0A0"/>
<rect x="32" y="14.6666" width="2.66667" height="2.66667" transform="rotate(90 32 14.6666)" fill="#A0A0A0"/>
<rect x="20" y="26.6666" width="2.66667" height="2.66667" transform="rotate(-180 20 26.6666)" fill="#A0A0A0"/>
<rect x="14.6667" y="26.6666" width="2.66667" height="2.66667" transform="rotate(-180 14.6667 26.6666)" fill="#A0A0A0"/>
<rect x="17.3333" y="32" width="2.66667" height="2.66667" transform="rotate(-180 17.3333 32)" fill="#A0A0A0"/>
<rect x="5.33334" y="20" width="2.66667" height="2.66667" transform="rotate(-90 5.33334 20)" fill="#A0A0A0"/>
<rect x="5.33334" y="14.6666" width="2.66667" height="2.66667" transform="rotate(-90 5.33334 14.6666)" fill="#A0A0A0"/>
<rect y="17.3334" width="2.66667" height="2.66667" transform="rotate(-90 0 17.3334)" fill="#A0A0A0"/>
<rect x="5.33334" y="24" width="2.66667" height="2.66667" fill="black"/>
<rect x="24" y="5.33337" width="2.66667" height="2.66667" fill="black"/>
<rect x="24" y="24" width="2.66667" height="2.66667" fill="black"/>
<rect x="29.3333" y="14.6666" width="2.66667" height="5.33333" transform="rotate(90 29.3333 14.6666)" fill="black"/>
<rect x="14.6667" y="24" width="2.66667" height="5.33333" fill="black"/>
<rect x="8" y="14.6666" width="2.66667" height="5.33333" transform="rotate(90 8 14.6666)" fill="black"/>
<rect x="10.6667" y="10.6666" width="2.66667" height="2.66667" fill="white"/>
</svg>
