<svg width="37" height="37" viewBox="0 0 37 37" fill="none" xmlns="http://www.w3.org/2000/svg">
<path d="M2 24V13.5V13H4V8H6V6H8V4H13V2H24V4H29V6H31V8H33V13H35V24H33V29H31V31H29V33H24V35H13V33H8V31H6V29H4V24H2Z" fill="#FFFE54"/>
<path fill-rule="evenodd" clip-rule="evenodd" d="M24 0H13V2L8 2V4H6V6L4 6V8H2L2 13H0V24H2L2 13H4L4 8L6 8L6 6H8V4L13 4L13 2H24V4H29V6H31V8H33V13H35V24H33V29H31V31H29V33H24L24 35H13V33H8L8 31H6V29H4L4 24H2L2 29H4V31H6V33H8V35H13V37H24L24 35H29L29 33H31V31H33V29H35V24H37V13H35V8H33V6H31V4H29V2H24V0Z" fill="black"/>
<rect x="9" y="12" width="2" height="2" fill="black"/>
<rect x="13" y="12" width="2" height="2" fill="black"/>
<rect x="11" y="14" width="2" height="2" fill="black"/>
<rect x="9" y="16" width="2" height="2" fill="black"/>
<rect x="13" y="16" width="2" height="2" fill="black"/>
<rect x="22" y="12" width="2" height="2" fill="black"/>
<rect x="26" y="12" width="2" height="2" fill="black"/>
<rect x="24" y="14" width="2" height="2" fill="black"/>
<rect x="22" y="16" width="2" height="2" fill="black"/>
<rect x="26" y="16" width="2" height="2" fill="black"/>
<path fill-rule="evenodd" clip-rule="evenodd" d="M13 23H24V25H13V23ZM11 27V25H13V27H11ZM11 27V29H9V27H11ZM26 27H24V25H26V27ZM26 27H28V29H26V27Z" fill="black"/>
</svg>
