<?xml version="1.0" encoding="utf-8"?>
<!-- Generator: Adobe Illustrator 26.0.2, SVG Export Plug-In . SVG Version: 6.00 Build 0)  -->
<svg version="1.1" xmlns="http://www.w3.org/2000/svg" xmlns:xlink="http://www.w3.org/1999/xlink" x="0px" y="0px"
	 viewBox="0 0 37 37" style="enable-background:new 0 0 37 37;" xml:space="preserve">
<style type="text/css">
	.st0{fill:#FFFE54;}
	.st1{fill-rule:evenodd;clip-rule:evenodd;}
	.st2{fill:none;}
	.st3{fill:none;stroke:#000000;stroke-miterlimit:10;}
</style>
<g id="Layer_1">
	<path class="st0" d="M1.9,24V13.3v-0.5h2V7.8h2v-2h2v-2h5v-2h11.1v2h5v2h2v2h2v5.1h2V24h-2V29h-2v2h-2v2h-5v2H13v-2H8v-2H6v-2H4V24
		H1.9z"/>
	<path class="st1" d="M24,0H13v2H8v2H6v2H4v2H2v5H0v11h2V13h2V8h2V6h2V4h5V2h11v2h5v2h2v2h2v5h2v11h-2v5h-2v2h-2v2h-5v2H13v-2H8v-2
		H6v-2H4v-5H2v5h2v2h2v2h2v2h5v2h11v-2h5v-2h2v-2h2v-2h2v-5h2V13h-2V8h-2V6h-2V4h-2V2h-5V0z"/>
	<path class="st1" d="M24,29H13v-2h11V29z M26,25v2h-2v-2H26z M26,25v-2h2v2H26z M11,25h2v2h-2V25z M11,25H9v-2h2V25z"/>
	<path class="st2" d="M29.5,17.2C29.5,17.2,29.5,17.2,29.5,17.2"/>
	<path class="st2" d="M14.8-6.7c0,0,0-0.1,0-0.1"/>
</g>
<g id="Layer_2">
	<line class="st3" x1="16" y1="11.9" x2="16" y2="11.9"/>
	<line class="st3" x1="17.6" y1="13.7" x2="17.6" y2="13.7"/>
	<line class="st3" x1="8.2" y1="13.4" x2="16.8" y2="13.4"/>
	<line class="st3" x1="17.2" y1="13.3" x2="12.2" y2="18.2"/>
	<line class="st3" x1="7.9" y1="13.3" x2="12.9" y2="18.2"/>
	<line class="st3" x1="20.7" y1="13.4" x2="29.3" y2="13.4"/>
	<line class="st3" x1="29.6" y1="13.3" x2="24.7" y2="18.2"/>
	<line class="st3" x1="20.4" y1="13.3" x2="25.3" y2="18.2"/>
	<line class="st3" x1="15.2" y1="15.3" x2="22.6" y2="15.3"/>
	<path class="st3" d="M12,14.8c-0.1-0.1-0.3-0.3-0.4-0.4c-0.4-0.2-0.9-0.3-1.3-0.5c-0.2-0.1-0.5-0.2-0.7-0.1"/>
	<path class="st3" d="M11.6,14.6c-0.1,0.1,0,0.3,0,0.4c0,0.2-0.1,0.4-0.1,0.6"/>
	<path class="st3" d="M10.8,14.5c0,0.3,0.1,0.6,0.1,0.9"/>
	<path class="st3" d="M10.1,14c0.2,0.6,0.5,1.2,1,1.5"/>
	<path class="st3" d="M9.7,13.8c0,0.1,0,0.3,0,0.4c0.1,0.1,0.2,0.3,0.2,0.4c0.4,0.4,0.8,0.8,1.4,1.1"/>
	<path class="st3" d="M9.4,13.6c0.3,0.6,0.9,1.1,1.4,1.5c0.7,0.5,1.3,1.1,1.7,1.8"/>
	<path class="st3" d="M11,15.4c0.4,0.5,0.9,0.9,1.4,1.3c0.2,0.1,0.3,0.2,0.5,0.3c0,0,0.1,0,0.1,0c0,0,0.1-0.1,0.1-0.1
		c0.2-0.8,0.8-1.4,1.4-2c0.2-0.2,0.3-0.4,0.5-0.5"/>
	<path class="st3" d="M15.5,13.9c0,0.1-0.1,0.3-0.2,0.3c-0.4,0.4-0.9,0.7-1.4,1"/>
	<path class="st3" d="M12.7,14.3c0.9,0.1,1.9,0.1,2.7-0.3c0.1-0.1,0.3-0.1,0.3-0.3c-1.4,0.1-3,0.1-4.4,0"/>
	<path class="st3" d="M12,14.1c0.1,0.1,0.2,0.1,0.3,0.2c0.8,0.3,1.5,0.4,2.3,0.5"/>
	<path class="st3" d="M13.8,14.9c-0.6,0-1.2,0-1.8,0.1c-0.2,0-0.4,0.1-0.5,0.2"/>
	<path class="st3" d="M11.4,15.3c0.8,0.1,1.5,0.1,2.3,0.2"/>
	<path class="st3" d="M13.6,15.6c-0.4,0.1-0.9,0.2-1.4,0.3c-0.1,0-0.2,0-0.2,0.1"/>
	<path class="st3" d="M12.5,16.2c0.3,0,0.5,0,0.8-0.1"/>
	<path class="st3" d="M21.7,13.9c0,0.1,0.1,0.1,0.2,0.2c0.6,0.1,1.2,0.1,1.8,0.1c0.9,0,1.7,0,2.6,0c0.7,0,1.4,0,2-0.2"/>
	<path class="st3" d="M28.4,13.9c-0.5,0.5-1.2,0.7-1.8,1c-0.3,0.1-0.5,0.2-0.8,0.3c-0.2,0-0.5,0-0.7,0c-0.6,0-1.1-0.1-1.7-0.3
		c-0.3-0.1-0.5-0.2-0.7-0.4"/>
	<path class="st3" d="M22.3,14.9c0.3,0.2,0.6,0.3,0.9,0.4c0.3,0.1,0.6,0.1,0.9,0.1c0.5,0,1,0.1,1.5,0.1c0.4,0,0.9,0.1,1.3-0.1
		c-0.6,0.5-1.3,0.8-2,0.9c-0.4,0.1-0.8,0.1-1.2-0.1"/>
	<path class="st3" d="M23.4,15.9c0.5,0.3,1,0.3,1.5,0.6"/>
	<path class="st3" d="M25.8,16.4c-0.2,0.1-0.3,0.2-0.4,0.4c-0.3,0.4-0.6,0.4-1.1,0.3"/>
	<path class="st3" d="M26.7,14.9c-0.1-0.1-0.2-0.1-0.2-0.1c-0.7-0.1-1.5-0.1-2.2,0.1"/>
</g>
</svg>
